STARTFONT 2.1
COMMENT  
COMMENT  Copyright (c) 1987, 1988 Sony Corp.
COMMENT  
COMMENT  WARNING:  This bdf file was generated from a font server using
COMMENT  fstobdf.  The resulting font is subject to the same copyright,
COMMENT  license, and trademark restrictions as the original font.  The
COMMENT  authors and distributors of fstobdf disclaim all liability for
COMMENT  misuse of the program or its output.
COMMENT  
FONT -Sony-Fixed-Medium-R-Normal--24-170-100-100-C-120-ISO8859-1
SIZE 17 100 100
FONTBOUNDINGBOX 12 24 0 -2
STARTPROPERTIES 24
FONTNAME_REGISTRY ""
FOUNDRY "Sony"
FAMILY_NAME "Fixed"
WEIGHT_NAME "Medium"
SLANT "R"
SETWIDTH_NAME "Normal"
ADD_STYLE_NAME ""
PIXEL_SIZE 24
POINT_SIZE 170
RESOLUTION_X 100
RESOLUTION_Y 100
SPACING "C"
AVERAGE_WIDTH 120
CHARSET_REGISTRY "ISO8859"
CHARSET_ENCODING "1"
COPYRIGHT "Copyright (c) 1987, 1988 Sony Corp."
FONT "-Sony-Fixed-Medium-R-Normal--24-170-100-100-C-120-ISO8859-1"
WEIGHT 10
RESOLUTION 138
X_HEIGHT 22
QUAD_WIDTH 12
DEFAULT_CHAR 32
FONT_ASCENT 22
FONT_DESCENT 2
ENDPROPERTIES
CHARS 221
STARTCHAR C000001
ENCODING 1
SWIDTH 508 0
DWIDTH 12 0
BBX 11 21 0 1
BITMAP
0400
0400
0e00
0e00
1f00
1f00
3f80
3f80
7fc0
7fc0
ffe0
7fc0
7fc0
3f80
3f80
1f00
1f00
0e00
0e00
0400
0400
ENDCHAR
STARTCHAR C000002
ENCODING 2
SWIDTH 508 0
DWIDTH 12 0
BBX 12 21 0 1
BITMAP
c630
c630
c630
30c0
30c0
30c0
c630
c630
c630
30c0
30c0
30c0
c630
c630
c630
30c0
30c0
30c0
c630
c630
c630
ENDCHAR
STARTCHAR C000003
ENCODING 3
SWIDTH 508 0
DWIDTH 12 0
BBX 10 19 0 1
BITMAP
c600
c600
c600
c600
fe00
c600
c600
c600
c600
0000
0000
3fc0
0600
0600
0600
0600
0600
0600
0600
ENDCHAR
STARTCHAR C000004
ENCODING 4
SWIDTH 508 0
DWIDTH 12 0
BBX 10 19 0 1
BITMAP
fe00
c000
c000
c000
fc00
c000
c000
c000
c000
0000
1fc0
1800
1800
1800
1f80
1800
1800
1800
1800
ENDCHAR
STARTCHAR C000005
ENCODING 5
SWIDTH 508 0
DWIDTH 12 0
BBX 10 19 0 1
BITMAP
3c00
6600
c600
c000
c000
c000
c000
6600
3c00
0000
1f80
18c0
18c0
18c0
1f80
1900
1980
18c0
18c0
ENDCHAR
STARTCHAR C000006
ENCODING 6
SWIDTH 508 0
DWIDTH 12 0
BBX 10 19 0 1
BITMAP
c000
c000
c000
c000
c000
c000
c000
c000
fe00
0000
1fc0
1800
1800
1800
1f80
1800
1800
1800
1800
ENDCHAR
STARTCHAR C000007
ENCODING 7
SWIDTH 508 0
DWIDTH 12 0
BBX 7 6 2 12
BITMAP
38
6c
c6
c6
6c
38
ENDCHAR
STARTCHAR C000010
ENCODING 8
SWIDTH 508 0
DWIDTH 12 0
BBX 10 17 0 2
BITMAP
0c00
0c00
0c00
0c00
0c00
0c00
ffc0
ffc0
0c00
0c00
0c00
0c00
0c00
0c00
0000
ffc0
ffc0
ENDCHAR
STARTCHAR C000011
ENCODING 9
SWIDTH 508 0
DWIDTH 12 0
BBX 10 19 0 1
BITMAP
e300
e300
d300
d300
cb00
cb00
c700
c700
c300
0000
1800
1800
1800
1800
1800
1800
1800
1800
1fc0
ENDCHAR
STARTCHAR C000012
ENCODING 10
SWIDTH 508 0
DWIDTH 12 0
BBX 10 19 0 1
BITMAP
c180
c180
6300
6300
3600
3600
1c00
1c00
0800
0000
0000
3fc0
0600
0600
0600
0600
0600
0600
0600
ENDCHAR
STARTCHAR C000013
ENCODING 11
SWIDTH 508 0
DWIDTH 12 0
BBX 6 13 0 9
BITMAP
04
04
04
04
04
04
04
04
04
04
04
04
fc
ENDCHAR
STARTCHAR C000014
ENCODING 12
SWIDTH 508 0
DWIDTH 12 0
BBX 6 12 0 -2
BITMAP
fc
04
04
04
04
04
04
04
04
04
04
04
ENDCHAR
STARTCHAR C000015
ENCODING 13
SWIDTH 508 0
DWIDTH 12 0
BBX 7 12 5 -2
BITMAP
fe
80
80
80
80
80
80
80
80
80
80
80
ENDCHAR
STARTCHAR C000016
ENCODING 14
SWIDTH 508 0
DWIDTH 12 0
BBX 7 13 5 9
BITMAP
80
80
80
80
80
80
80
80
80
80
80
80
fe
ENDCHAR
STARTCHAR C000017
ENCODING 15
SWIDTH 508 0
DWIDTH 12 0
BBX 12 24 0 -2
BITMAP
0400
0400
0400
0400
0400
0400
0400
0400
0400
0400
0400
0400
fff0
0400
0400
0400
0400
0400
0400
0400
0400
0400
0400
0400
ENDCHAR
STARTCHAR C000020
ENCODING 16
SWIDTH 508 0
DWIDTH 12 0
BBX 12 1 0 19
BITMAP
fff0
ENDCHAR
STARTCHAR C000021
ENCODING 17
SWIDTH 508 0
DWIDTH 12 0
BBX 12 1 0 14
BITMAP
fff0
ENDCHAR
STARTCHAR C000022
ENCODING 18
SWIDTH 508 0
DWIDTH 12 0
BBX 12 1 0 9
BITMAP
fff0
ENDCHAR
STARTCHAR C000023
ENCODING 19
SWIDTH 508 0
DWIDTH 12 0
BBX 12 1 0 4
BITMAP
fff0
ENDCHAR
STARTCHAR C000024
ENCODING 20
SWIDTH 508 0
DWIDTH 12 0
BBX 12 1 0 -1
BITMAP
fff0
ENDCHAR
STARTCHAR C000025
ENCODING 21
SWIDTH 508 0
DWIDTH 12 0
BBX 7 24 5 -2
BITMAP
80
80
80
80
80
80
80
80
80
80
80
80
fe
80
80
80
80
80
80
80
80
80
80
80
ENDCHAR
STARTCHAR C000026
ENCODING 22
SWIDTH 508 0
DWIDTH 12 0
BBX 6 24 0 -2
BITMAP
04
04
04
04
04
04
04
04
04
04
04
04
fc
04
04
04
04
04
04
04
04
04
04
04
ENDCHAR
STARTCHAR C000027
ENCODING 23
SWIDTH 508 0
DWIDTH 12 0
BBX 12 13 0 9
BITMAP
0400
0400
0400
0400
0400
0400
0400
0400
0400
0400
0400
0400
fff0
ENDCHAR
STARTCHAR C000030
ENCODING 24
SWIDTH 508 0
DWIDTH 12 0
BBX 12 12 0 -2
BITMAP
fff0
0400
0400
0400
0400
0400
0400
0400
0400
0400
0400
0400
ENDCHAR
STARTCHAR C000031
ENCODING 25
SWIDTH 508 0
DWIDTH 12 0
BBX 1 24 5 -2
BITMAP
80
80
80
80
80
80
80
80
80
80
80
80
80
80
80
80
80
80
80
80
80
80
80
80
ENDCHAR
STARTCHAR C000032
ENCODING 26
SWIDTH 508 0
DWIDTH 12 0
BBX 10 14 0 1
BITMAP
0040
00c0
0380
0e00
3800
e000
3800
0e00
0380
00c0
0040
ffc0
0000
ffc0
ENDCHAR
STARTCHAR C000033
ENCODING 27
SWIDTH 508 0
DWIDTH 12 0
BBX 10 14 0 1
BITMAP
8000
c000
7000
1c00
0700
01c0
0700
1c00
7000
c000
8000
ffc0
0000
ffc0
ENDCHAR
STARTCHAR C000034
ENCODING 28
SWIDTH 508 0
DWIDTH 12 0
BBX 11 10 0 1
BITMAP
ffe0
3180
3180
3180
3180
3180
7180
6180
c180
c180
ENDCHAR
STARTCHAR C000035
ENCODING 29
SWIDTH 508 0
DWIDTH 12 0
BBX 10 13 0 2
BITMAP
00c0
0180
0100
0200
ffc0
0400
0c00
0800
ffc0
1000
2000
6000
c000
ENDCHAR
STARTCHAR C000036
ENCODING 30
SWIDTH 508 0
DWIDTH 12 0
BBX 10 15 1 0
BITMAP
0700
0880
18c0
18c0
1800
1800
9800
ff80
1800
1800
1800
7f00
d9c0
d9c0
7000
ENDCHAR
STARTCHAR C000037
ENCODING 31
SWIDTH 508 0
DWIDTH 12 0
BBX 2 2 4 8
BITMAP
c0
c0
ENDCHAR
STARTCHAR space
ENCODING 32
SWIDTH 508 0
DWIDTH 12 0
BBX 0 0 0 0
BITMAP
ENDCHAR
STARTCHAR exclam
ENCODING 33
SWIDTH 508 0
DWIDTH 12 0
BBX 3 19 4 1
BITMAP
e0
e0
e0
e0
e0
e0
e0
e0
e0
40
40
40
40
40
00
00
e0
e0
e0
ENDCHAR
STARTCHAR quotedbl
ENCODING 34
SWIDTH 508 0
DWIDTH 12 0
BBX 8 6 1 16
BITMAP
e7
e7
63
63
42
84
ENDCHAR
STARTCHAR numbersign
ENCODING 35
SWIDTH 508 0
DWIDTH 12 0
BBX 11 22 0 -1
BITMAP
0880
0880
0880
0880
0880
0880
7fe0
7fe0
1100
1100
1100
1100
1100
1100
ffc0
ffc0
2200
2200
2200
2200
2200
2200
ENDCHAR
STARTCHAR dollar
ENCODING 36
SWIDTH 508 0
DWIDTH 12 0
BBX 11 22 0 -1
BITMAP
0400
0400
1f00
64c0
c460
c460
c400
c400
e400
7c00
1f00
07c0
04e0
0460
0460
0460
c460
c460
64c0
1f00
0400
0400
ENDCHAR
STARTCHAR percent
ENCODING 37
SWIDTH 508 0
DWIDTH 12 0
BBX 11 22 0 -1
BITMAP
7820
cc20
cc40
cc40
cc80
cc80
7900
0100
0200
0200
0400
0400
0800
0800
1000
13c0
2660
2660
4660
4660
8660
83c0
ENDCHAR
STARTCHAR ampersand
ENCODING 38
SWIDTH 508 0
DWIDTH 12 0
BBX 11 19 0 1
BITMAP
1e00
2100
6180
6180
6180
6300
6600
3400
1800
1800
2c00
4400
c660
c320
c160
c1c0
c080
61c0
3f60
ENDCHAR
STARTCHAR apostrophe
ENCODING 39
SWIDTH 508 0
DWIDTH 12 0
BBX 3 6 3 16
BITMAP
e0
e0
60
60
40
80
ENDCHAR
STARTCHAR parenleft
ENCODING 40
SWIDTH 508 0
DWIDTH 12 0
BBX 6 24 4 -2
BITMAP
04
08
18
10
30
20
60
60
40
c0
c0
c0
c0
c0
c0
40
60
60
20
30
10
18
08
04
ENDCHAR
STARTCHAR parenright
ENCODING 41
SWIDTH 508 0
DWIDTH 12 0
BBX 6 24 1 -2
BITMAP
80
40
60
20
30
10
18
18
08
0c
0c
0c
0c
0c
0c
08
18
18
10
30
20
60
40
80
ENDCHAR
STARTCHAR asterisk
ENCODING 42
SWIDTH 508 0
DWIDTH 12 0
BBX 10 12 0 4
BITMAP
0c00
0c00
ccc0
edc0
3f00
0c00
0c00
3f00
edc0
ccc0
0c00
0c00
ENDCHAR
STARTCHAR plus
ENCODING 43
SWIDTH 508 0
DWIDTH 12 0
BBX 10 14 1 3
BITMAP
0c00
0c00
0c00
0c00
0c00
0c00
ffc0
ffc0
0c00
0c00
0c00
0c00
0c00
0c00
ENDCHAR
STARTCHAR comma
ENCODING 44
SWIDTH 508 0
DWIDTH 12 0
BBX 3 6 3 -2
BITMAP
e0
e0
60
60
40
80
ENDCHAR
STARTCHAR minus
ENCODING 45
SWIDTH 508 0
DWIDTH 12 0
BBX 11 2 0 9
BITMAP
ffe0
ffe0
ENDCHAR
STARTCHAR period
ENCODING 46
SWIDTH 508 0
DWIDTH 12 0
BBX 3 3 3 1
BITMAP
e0
e0
e0
ENDCHAR
STARTCHAR slash
ENCODING 47
SWIDTH 508 0
DWIDTH 12 0
BBX 11 22 0 -1
BITMAP
0020
0060
0040
00c0
0080
0180
0100
0300
0200
0600
0400
0c00
0800
1800
1000
3000
2000
6000
4000
c000
8000
8000
ENDCHAR
STARTCHAR 0
ENCODING 48
SWIDTH 508 0
DWIDTH 12 0
BBX 11 20 0 0
BITMAP
0e00
1b00
3180
2080
60c0
4040
c060
c060
c060
c060
c060
c060
c060
c060
4040
60c0
2080
3180
1b00
0e00
ENDCHAR
STARTCHAR 1
ENCODING 49
SWIDTH 508 0
DWIDTH 12 0
BBX 9 20 1 0
BITMAP
0c00
1c00
3c00
fc00
0c00
0c00
0c00
0c00
0c00
0c00
0c00
0c00
0c00
0c00
0c00
0c00
0c00
0c00
0c00
7f80
ENDCHAR
STARTCHAR 2
ENCODING 50
SWIDTH 508 0
DWIDTH 12 0
BBX 11 20 0 0
BITMAP
0e00
3180
60c0
4060
8060
0060
0060
00c0
00c0
0180
0300
0200
0400
0800
1000
2020
4020
4060
ffe0
ffe0
ENDCHAR
STARTCHAR 3
ENCODING 51
SWIDTH 508 0
DWIDTH 12 0
BBX 11 20 0 0
BITMAP
3e00
6380
8180
00c0
00c0
00c0
0080
0100
1e00
3f80
01c0
00e0
0060
0060
0060
0060
00c0
0180
0700
f800
ENDCHAR
STARTCHAR 4
ENCODING 52
SWIDTH 508 0
DWIDTH 12 0
BBX 11 20 0 0
BITMAP
0180
0180
0380
0380
0580
0580
0980
0980
1180
1180
2180
2180
4180
4180
ffe0
0180
0180
0180
0180
07e0
ENDCHAR
STARTCHAR 5
ENCODING 53
SWIDTH 508 0
DWIDTH 12 0
BBX 10 20 1 0
BITMAP
ffc0
ff80
8000
8000
8000
8000
8000
be00
e300
c180
80c0
00c0
00c0
00c0
00c0
00c0
0180
0180
0700
f800
ENDCHAR
STARTCHAR 6
ENCODING 54
SWIDTH 508 0
DWIDTH 12 0
BBX 11 20 0 0
BITMAP
0380
0c00
1000
3000
6000
6000
c000
c000
cf00
f0c0
c060
c060
c060
c060
c060
c060
60c0
60c0
3180
0e00
ENDCHAR
STARTCHAR 7
ENCODING 55
SWIDTH 508 0
DWIDTH 12 0
BBX 11 20 0 0
BITMAP
ffe0
ffe0
c020
8040
8080
0080
0100
0100
0200
0200
0600
0600
0400
0c00
0c00
0c00
0c00
0c00
0c00
0c00
ENDCHAR
STARTCHAR 8
ENCODING 56
SWIDTH 508 0
DWIDTH 12 0
BBX 11 20 0 0
BITMAP
0e00
3180
2080
60c0
60c0
60c0
60c0
3080
3900
1e00
1f00
23c0
40c0
c060
c060
c060
c060
4040
60c0
1f00
ENDCHAR
STARTCHAR 9
ENCODING 57
SWIDTH 508 0
DWIDTH 12 0
BBX 11 20 0 0
BITMAP
0e00
3180
60c0
60c0
c060
c060
c060
c060
c060
4060
61e0
1e60
0060
0060
00c0
00c0
0180
0100
0600
3800
ENDCHAR
STARTCHAR colon
ENCODING 58
SWIDTH 508 0
DWIDTH 12 0
BBX 3 13 4 1
BITMAP
e0
e0
e0
00
00
00
00
00
00
00
e0
e0
e0
ENDCHAR
STARTCHAR semicolon
ENCODING 59
SWIDTH 508 0
DWIDTH 12 0
BBX 3 16 4 -2
BITMAP
e0
e0
e0
00
00
00
00
00
00
00
e0
e0
60
60
40
80
ENDCHAR
STARTCHAR less
ENCODING 60
SWIDTH 508 0
DWIDTH 12 0
BBX 10 20 1 0
BITMAP
0040
00c0
0180
0300
0600
0c00
1800
3000
6000
c000
c000
6000
3000
1800
0c00
0600
0300
0180
00c0
0040
ENDCHAR
STARTCHAR equal
ENCODING 61
SWIDTH 508 0
DWIDTH 12 0
BBX 11 8 0 6
BITMAP
ffe0
ffe0
0000
0000
0000
0000
ffe0
ffe0
ENDCHAR
STARTCHAR greater
ENCODING 62
SWIDTH 508 0
DWIDTH 12 0
BBX 10 20 1 0
BITMAP
8000
c000
6000
3000
1800
0c00
0600
0300
0180
00c0
00c0
0180
0300
0600
0c00
1800
3000
6000
c000
8000
ENDCHAR
STARTCHAR question
ENCODING 63
SWIDTH 508 0
DWIDTH 12 0
BBX 10 19 1 1
BITMAP
1e00
6180
c0c0
c0c0
e0c0
60c0
01c0
0180
0300
0600
0400
0800
0800
0800
0000
0000
1c00
1c00
1c00
ENDCHAR
STARTCHAR at
ENCODING 64
SWIDTH 508 0
DWIDTH 12 0
BBX 11 20 0 0
BITMAP
1f00
2080
60c0
4040
c060
8d20
9720
b320
b320
b320
b320
b320
b320
b760
9dc0
c000
4000
6020
20c0
1f00
ENDCHAR
STARTCHAR A
ENCODING 65
SWIDTH 508 0
DWIDTH 12 0
BBX 12 19 0 1
BITMAP
0600
0600
0600
0b00
0b00
0b00
0980
1180
1180
1180
20c0
20c0
3fc0
20c0
4060
4060
4060
4060
e0f0
ENDCHAR
STARTCHAR B
ENCODING 66
SWIDTH 508 0
DWIDTH 12 0
BBX 11 19 0 1
BITMAP
fe00
6180
60c0
60c0
60c0
60c0
60c0
6080
6100
7e00
6180
60c0
6060
6060
6060
6060
60c0
6180
fe00
ENDCHAR
STARTCHAR C
ENCODING 67
SWIDTH 508 0
DWIDTH 12 0
BBX 10 19 1 1
BITMAP
0e40
31c0
60c0
6040
c000
c000
c000
c000
c000
c000
c000
c000
c000
c000
c000
6040
6040
3180
0e00
ENDCHAR
STARTCHAR D
ENCODING 68
SWIDTH 508 0
DWIDTH 12 0
BBX 11 19 0 1
BITMAP
fc00
6300
6180
60c0
60c0
6060
6060
6060
6060
6060
6060
6060
6060
6060
60c0
60c0
6180
6300
fc00
ENDCHAR
STARTCHAR E
ENCODING 69
SWIDTH 508 0
DWIDTH 12 0
BBX 11 19 0 1
BITMAP
ffc0
60c0
6040
6020
6000
6000
6100
6100
6300
7f00
6300
6100
6100
6000
6000
6020
6040
60c0
ffc0
ENDCHAR
STARTCHAR F
ENCODING 70
SWIDTH 508 0
DWIDTH 12 0
BBX 11 19 0 1
BITMAP
ffc0
60c0
6040
6020
6000
6000
6100
6100
6300
7f00
6300
6100
6100
6000
6000
6000
6000
6000
f000
ENDCHAR
STARTCHAR G
ENCODING 71
SWIDTH 508 0
DWIDTH 12 0
BBX 11 19 0 1
BITMAP
0e40
31c0
60c0
6040
c000
c000
c000
c000
c000
c000
c3e0
c0c0
c0c0
c0c0
c0c0
60c0
60c0
31c0
0e40
ENDCHAR
STARTCHAR H
ENCODING 72
SWIDTH 508 0
DWIDTH 12 0
BBX 11 19 0 1
BITMAP
f1e0
60c0
60c0
60c0
60c0
60c0
60c0
60c0
60c0
7fc0
60c0
60c0
60c0
60c0
60c0
60c0
60c0
60c0
f1e0
ENDCHAR
STARTCHAR I
ENCODING 73
SWIDTH 508 0
DWIDTH 12 0
BBX 6 19 2 1
BITMAP
fc
30
30
30
30
30
30
30
30
30
30
30
30
30
30
30
30
30
fc
ENDCHAR
STARTCHAR J
ENCODING 74
SWIDTH 508 0
DWIDTH 12 0
BBX 11 19 0 1
BITMAP
07e0
0180
0180
0180
0180
0180
0180
0180
0180
0180
0180
0180
0180
6180
e180
c180
c180
6300
1c00
ENDCHAR
STARTCHAR K
ENCODING 75
SWIDTH 508 0
DWIDTH 12 0
BBX 11 19 0 1
BITMAP
f1e0
6040
6080
6080
6100
6200
6200
6400
6800
7c00
7c00
6600
6600
6300
6300
6180
6180
60c0
f1e0
ENDCHAR
STARTCHAR L
ENCODING 76
SWIDTH 508 0
DWIDTH 12 0
BBX 11 19 0 1
BITMAP
f000
6000
6000
6000
6000
6000
6000
6000
6000
6000
6000
6000
6000
6000
6000
6020
6040
60c0
ffc0
ENDCHAR
STARTCHAR M
ENCODING 77
SWIDTH 508 0
DWIDTH 12 0
BBX 12 19 0 1
BITMAP
e070
6060
60e0
70e0
70e0
7160
5960
5960
5b60
4e60
4e60
4e60
4460
4460
4060
4060
4060
4060
e0f0
ENDCHAR
STARTCHAR N
ENCODING 78
SWIDTH 508 0
DWIDTH 12 0
BBX 11 19 0 1
BITMAP
e0e0
6040
7040
7040
7040
5840
5840
4c40
4c40
4640
4640
4340
4340
4340
41c0
41c0
40c0
40c0
e040
ENDCHAR
STARTCHAR O
ENCODING 79
SWIDTH 508 0
DWIDTH 12 0
BBX 11 19 0 1
BITMAP
1f00
60c0
4040
c060
c060
c060
c060
c060
c060
c060
c060
c060
c060
c060
c060
c060
4040
60c0
1f00
ENDCHAR
STARTCHAR P
ENCODING 80
SWIDTH 508 0
DWIDTH 12 0
BBX 11 19 0 1
BITMAP
fe00
6180
60c0
6060
6060
6060
6060
6060
60c0
6180
7e00
6000
6000
6000
6000
6000
6000
6000
f000
ENDCHAR
STARTCHAR Q
ENCODING 81
SWIDTH 508 0
DWIDTH 12 0
BBX 11 22 0 -2
BITMAP
1e00
6180
4080
c0c0
c0c0
c0c0
c0c0
c0c0
c0c0
c0c0
c0c0
c0c0
c0c0
c0c0
ccc0
d2c0
6280
6380
1e00
0320
01e0
00c0
ENDCHAR
STARTCHAR R
ENCODING 82
SWIDTH 508 0
DWIDTH 12 0
BBX 11 19 0 1
BITMAP
fe00
6180
6080
60c0
60c0
60c0
60c0
6080
6180
7e00
6200
6100
6180
6180
6180
6180
61a0
61a0
f0c0
ENDCHAR
STARTCHAR S
ENCODING 83
SWIDTH 508 0
DWIDTH 12 0
BBX 11 19 0 1
BITMAP
1e40
61c0
c0c0
c040
c000
c000
e000
7000
3e00
0f80
01c0
00e0
0060
0060
0060
8060
c0c0
e180
9e00
ENDCHAR
STARTCHAR T
ENCODING 84
SWIDTH 508 0
DWIDTH 12 0
BBX 10 19 0 1
BITMAP
ffc0
ccc0
8c40
8c40
8c40
0c00
0c00
0c00
0c00
0c00
0c00
0c00
0c00
0c00
0c00
0c00
0c00
0c00
1e00
ENDCHAR
STARTCHAR U
ENCODING 85
SWIDTH 508 0
DWIDTH 12 0
BBX 11 19 0 1
BITMAP
f0e0
6040
6040
6040
6040
6040
6040
6040
6040
6040
6040
6040
6040
6040
6040
6040
6040
3080
1f00
ENDCHAR
STARTCHAR V
ENCODING 86
SWIDTH 508 0
DWIDTH 12 0
BBX 11 19 0 1
BITMAP
f0e0
6040
6040
6040
6040
3080
3080
3080
3080
1900
1900
1900
1b00
0a00
0e00
0e00
0400
0400
0400
ENDCHAR
STARTCHAR W
ENCODING 87
SWIDTH 508 0
DWIDTH 12 0
BBX 11 19 0 1
BITMAP
e060
c020
c020
c020
c020
c020
c620
c620
c620
c620
c620
cf20
cb20
6b40
6b40
7140
71c0
3180
3180
ENDCHAR
STARTCHAR X
ENCODING 88
SWIDTH 508 0
DWIDTH 12 0
BBX 11 19 0 1
BITMAP
f0e0
6040
6040
3080
3080
1900
1900
0a00
0e00
0400
0e00
0a00
1300
1300
2180
2180
40c0
40c0
e1e0
ENDCHAR
STARTCHAR Y
ENCODING 89
SWIDTH 508 0
DWIDTH 12 0
BBX 11 19 0 1
BITMAP
f0e0
6040
6040
3080
3080
3080
1900
1900
0f00
0e00
0600
0600
0600
0600
0600
0600
0600
0600
1f80
ENDCHAR
STARTCHAR Z
ENCODING 90
SWIDTH 508 0
DWIDTH 12 0
BBX 11 19 0 1
BITMAP
7fe0
40c0
40c0
8180
0180
0300
0300
0600
0600
0600
0c00
0c00
1800
1800
3000
3020
6040
60c0
ffc0
ENDCHAR
STARTCHAR bracketleft
ENCODING 91
SWIDTH 508 0
DWIDTH 12 0
BBX 6 24 4 -2
BITMAP
0c
38
e0
c0
c0
c0
c0
c0
c0
c0
c0
c0
c0
c0
c0
c0
c0
c0
c0
c0
c0
e0
38
0c
ENDCHAR
STARTCHAR backslash
ENCODING 92
SWIDTH 508 0
DWIDTH 12 0
BBX 11 22 0 -1
BITMAP
8000
c000
4000
6000
2000
3000
1000
1800
0800
0c00
0400
0600
0200
0300
0100
0180
0080
00c0
0040
0060
0020
0020
ENDCHAR
STARTCHAR bracketright
ENCODING 93
SWIDTH 508 0
DWIDTH 12 0
BBX 6 24 1 -2
BITMAP
c0
f0
3c
0c
0c
0c
0c
0c
0c
0c
0c
0c
0c
0c
0c
0c
0c
0c
0c
0c
0c
3c
f0
c0
ENDCHAR
STARTCHAR asciicircum
ENCODING 94
SWIDTH 508 0
DWIDTH 12 0
BBX 11 6 0 16
BITMAP
0400
0e00
1f00
3b80
60c0
c060
ENDCHAR
STARTCHAR underscore
ENCODING 95
SWIDTH 508 0
DWIDTH 12 0
BBX 11 2 0 -2
BITMAP
ffe0
ffe0
ENDCHAR
STARTCHAR grave
ENCODING 96
SWIDTH 508 0
DWIDTH 12 0
BBX 7 5 2 17
BITMAP
60
f0
78
1c
06
ENDCHAR
STARTCHAR a
ENCODING 97
SWIDTH 508 0
DWIDTH 12 0
BBX 11 13 0 1
BITMAP
1c00
7300
4180
0180
0180
1f80
6180
c180
c180
c180
c1a0
63a0
3cc0
ENDCHAR
STARTCHAR b
ENCODING 98
SWIDTH 508 0
DWIDTH 12 0
BBX 11 19 0 1
BITMAP
6000
e000
6000
6000
6000
6000
6e00
7180
60c0
60c0
6060
6060
6060
6060
6060
60c0
60c0
7180
4e00
ENDCHAR
STARTCHAR c
ENCODING 99
SWIDTH 508 0
DWIDTH 12 0
BBX 10 13 0 1
BITMAP
0e00
3180
60c0
60c0
c000
c000
c000
c000
c000
6000
6040
3180
0e00
ENDCHAR
STARTCHAR d
ENCODING 100
SWIDTH 508 0
DWIDTH 12 0
BBX 11 19 0 1
BITMAP
00c0
03c0
00c0
00c0
00c0
00c0
0ec0
31c0
60c0
60c0
c0c0
c0c0
c0c0
c0c0
c0c0
60c0
60c0
31c0
0ee0
ENDCHAR
STARTCHAR e
ENCODING 101
SWIDTH 508 0
DWIDTH 12 0
BBX 11 13 0 1
BITMAP
0e00
3180
60c0
60e0
c060
ffe0
c000
c000
c000
6000
6020
30c0
0f00
ENDCHAR
STARTCHAR f
ENCODING 102
SWIDTH 508 0
DWIDTH 12 0
BBX 11 19 0 1
BITMAP
01c0
0660
0460
0c00
0c00
0c00
ffc0
0c00
0c00
0c00
0c00
0c00
0c00
0c00
0c00
0c00
0c00
0c00
3f00
ENDCHAR
STARTCHAR g
ENCODING 103
SWIDTH 508 0
DWIDTH 12 0
BBX 11 17 0 -2
BITMAP
0060
0ee0
3180
60c0
60c0
60c0
3180
0e00
1000
3000
1f00
27c0
40e0
c060
c060
60c0
1f00
ENDCHAR
STARTCHAR h
ENCODING 104
SWIDTH 508 0
DWIDTH 12 0
BBX 11 19 0 1
BITMAP
6000
e000
6000
6000
6000
6000
6f00
7180
60c0
60c0
60c0
60c0
60c0
60c0
60c0
60c0
60c0
60c0
f1e0
ENDCHAR
STARTCHAR i
ENCODING 105
SWIDTH 508 0
DWIDTH 12 0
BBX 6 19 2 1
BITMAP
70
70
70
00
00
00
f0
30
30
30
30
30
30
30
30
30
30
30
fc
ENDCHAR
STARTCHAR j
ENCODING 106
SWIDTH 508 0
DWIDTH 12 0
BBX 8 22 0 -2
BITMAP
07
07
07
00
00
00
0f
03
03
03
03
03
03
03
03
03
03
03
03
c3
c6
7c
ENDCHAR
STARTCHAR k
ENCODING 107
SWIDTH 508 0
DWIDTH 12 0
BBX 11 19 0 1
BITMAP
6000
e000
6000
6000
6000
6000
61e0
6080
6100
6200
6400
6800
7800
6c00
6600
6300
6180
60c0
f1e0
ENDCHAR
STARTCHAR l
ENCODING 108
SWIDTH 508 0
DWIDTH 12 0
BBX 6 19 2 1
BITMAP
30
f0
30
30
30
30
30
30
30
30
30
30
30
30
30
30
30
30
fc
ENDCHAR
STARTCHAR m
ENCODING 109
SWIDTH 508 0
DWIDTH 12 0
BBX 12 13 0 1
BITMAP
6dc0
f660
6660
6660
6660
6660
6660
6660
6660
6660
6660
6660
ef70
ENDCHAR
STARTCHAR n
ENCODING 110
SWIDTH 508 0
DWIDTH 12 0
BBX 11 13 0 1
BITMAP
6600
f980
60c0
60c0
60c0
60c0
60c0
60c0
60c0
60c0
60c0
60c0
f1e0
ENDCHAR
STARTCHAR o
ENCODING 111
SWIDTH 508 0
DWIDTH 12 0
BBX 11 13 0 1
BITMAP
0e00
3180
60c0
4040
c060
c060
c060
c060
c060
4040
60c0
3180
0e00
ENDCHAR
STARTCHAR p
ENCODING 112
SWIDTH 508 0
DWIDTH 12 0
BBX 11 16 0 -2
BITMAP
6e00
f180
60c0
6060
6060
6060
6060
6060
60c0
7180
6e00
6000
6000
6000
6000
f000
ENDCHAR
STARTCHAR q
ENCODING 113
SWIDTH 508 0
DWIDTH 12 0
BBX 11 16 0 -2
BITMAP
0e40
31c0
60c0
c0c0
c0c0
c0c0
c0c0
c0c0
60c0
31c0
0ec0
00c0
00c0
00c0
00c0
01e0
ENDCHAR
STARTCHAR r
ENCODING 114
SWIDTH 508 0
DWIDTH 12 0
BBX 11 13 0 1
BITMAP
31c0
f3e0
3660
3800
3000
3000
3000
3000
3000
3000
3000
3000
fc00
ENDCHAR
STARTCHAR s
ENCODING 115
SWIDTH 508 0
DWIDTH 12 0
BBX 11 13 0 1
BITMAP
1e40
61c0
c0c0
c040
e000
7c00
1f80
03c0
00e0
8060
c060
e0c0
9f00
ENDCHAR
STARTCHAR t
ENCODING 116
SWIDTH 508 0
DWIDTH 12 0
BBX 11 19 0 1
BITMAP
1800
1800
1800
1800
1800
1800
ff80
1800
1800
1800
1800
1800
1800
1800
1800
1820
1820
0c40
0780
ENDCHAR
STARTCHAR u
ENCODING 117
SWIDTH 508 0
DWIDTH 12 0
BBX 11 13 0 1
BITMAP
60c0
e1c0
60c0
60c0
60c0
60c0
60c0
60c0
60c0
60c0
60c0
33c0
1ce0
ENDCHAR
STARTCHAR v
ENCODING 118
SWIDTH 508 0
DWIDTH 12 0
BBX 11 13 0 1
BITMAP
f0e0
6040
6040
3080
3080
3080
1900
1900
1a00
0e00
0e00
0400
0400
ENDCHAR
STARTCHAR w
ENCODING 119
SWIDTH 508 0
DWIDTH 12 0
BBX 11 13 0 1
BITMAP
e060
c020
c020
c620
c620
c620
ce20
cb20
cb20
5160
71c0
60c0
2080
ENDCHAR
STARTCHAR x
ENCODING 120
SWIDTH 508 0
DWIDTH 12 0
BBX 11 13 0 1
BITMAP
f0e0
6040
3080
1900
1900
0e00
0400
0e00
1300
1300
2180
40c0
e1e0
ENDCHAR
STARTCHAR y
ENCODING 121
SWIDTH 508 0
DWIDTH 12 0
BBX 11 16 0 -2
BITMAP
f0e0
6040
6040
3080
3080
1880
1900
0d00
0e00
0600
0200
0400
0400
c800
c800
7000
ENDCHAR
STARTCHAR z
ENCODING 122
SWIDTH 508 0
DWIDTH 12 0
BBX 11 13 0 1
BITMAP
7fe0
60c0
4180
8180
0300
0600
0400
0c00
1800
3020
3040
6040
ffc0
ENDCHAR
STARTCHAR braceleft
ENCODING 123
SWIDTH 508 0
DWIDTH 12 0
BBX 5 24 5 -2
BITMAP
08
10
10
30
30
30
30
30
30
20
40
80
40
20
30
30
30
30
30
30
30
10
10
08
ENDCHAR
STARTCHAR bar
ENCODING 124
SWIDTH 508 0
DWIDTH 12 0
BBX 2 24 5 -2
BITMAP
c0
c0
c0
c0
c0
c0
c0
c0
c0
c0
c0
c0
c0
c0
c0
c0
c0
c0
c0
c0
c0
c0
c0
c0
ENDCHAR
STARTCHAR braceright
ENCODING 125
SWIDTH 508 0
DWIDTH 12 0
BBX 5 24 1 -2
BITMAP
80
40
40
60
60
60
60
60
60
20
10
08
10
20
60
60
60
60
60
60
60
40
40
80
ENDCHAR
STARTCHAR asciitilde
ENCODING 126
SWIDTH 508 0
DWIDTH 12 0
BBX 11 4 0 18
BITMAP
3820
7c60
c7c0
8380
ENDCHAR
STARTCHAR exclamdown
ENCODING 161
SWIDTH 508 0
DWIDTH 12 0
BBX 3 19 4 0
BITMAP
e0
e0
e0
00
00
40
40
40
40
40
e0
e0
e0
e0
e0
e0
e0
e0
e0
ENDCHAR
STARTCHAR cent
ENCODING 162
SWIDTH 508 0
DWIDTH 12 0
BBX 11 20 0 0
BITMAP
0400
0400
1f00
2480
6440
c460
c460
c460
c400
c400
c400
c400
c400
c460
c460
6440
2480
1f00
0400
0400
ENDCHAR
STARTCHAR sterling
ENCODING 163
SWIDTH 508 0
DWIDTH 12 0
BBX 10 15 1 0
BITMAP
0700
0880
18c0
18c0
1800
1800
9800
ff80
1800
1800
1800
7f00
d9c0
d9c0
7000
ENDCHAR
STARTCHAR currency
ENCODING 164
SWIDTH 508 0
DWIDTH 12 0
BBX 11 11 0 5
BITMAP
8020
ce60
7fc0
3180
60c0
60c0
60c0
3180
7fc0
ce60
8020
ENDCHAR
STARTCHAR yen
ENCODING 165
SWIDTH 508 0
DWIDTH 12 0
BBX 10 18 1 1
BITMAP
f3c0
6180
6100
3100
3300
3200
1a00
fbc0
1e00
0c00
0c00
ffc0
0c00
0c00
0c00
0c00
1e00
7f80
ENDCHAR
STARTCHAR brokenbar
ENCODING 166
SWIDTH 508 0
DWIDTH 12 0
BBX 2 19 5 1
BITMAP
c0
c0
c0
c0
c0
c0
c0
c0
00
00
00
c0
c0
c0
c0
c0
c0
c0
c0
ENDCHAR
STARTCHAR section
ENCODING 167
SWIDTH 508 0
DWIDTH 12 0
BBX 10 19 1 1
BITMAP
1e00
6180
c0c0
c0c0
c000
6000
3e00
6180
c0c0
c0c0
c0c0
6180
1f00
0180
00c0
c0c0
c0c0
6180
1e00
ENDCHAR
STARTCHAR diaeresis
ENCODING 168
SWIDTH 508 0
DWIDTH 12 0
BBX 6 3 3 17
BITMAP
cc
cc
cc
ENDCHAR
STARTCHAR copyright
ENCODING 169
SWIDTH 508 0
DWIDTH 12 0
BBX 12 19 0 1
BITMAP
0f00
30c0
6060
4020
cf30
98d0
b070
e070
e010
e010
e010
e010
b030
98d0
cf30
4020
6060
30c0
0f00
ENDCHAR
STARTCHAR ordfeminine
ENCODING 170
SWIDTH 508 0
DWIDTH 12 0
BBX 7 11 3 9
BITMAP
38
c4
c6
06
3e
c6
c6
c6
3a
00
fe
ENDCHAR
STARTCHAR guillemotleft
ENCODING 171
SWIDTH 508 0
DWIDTH 12 0
BBX 10 20 1 0
BITMAP
0440
0cc0
0880
1980
1100
3300
2200
6600
4400
cc00
cc00
4400
6600
2200
3300
1100
1980
0880
0cc0
0440
ENDCHAR
STARTCHAR notsign
ENCODING 172
SWIDTH 508 0
DWIDTH 12 0
BBX 10 5 0 7
BITMAP
ffc0
ffc0
00c0
00c0
00c0
ENDCHAR
STARTCHAR hyphen
ENCODING 173
SWIDTH 508 0
DWIDTH 12 0
BBX 10 2 0 10
BITMAP
ffc0
ffc0
ENDCHAR
STARTCHAR registered
ENCODING 174
SWIDTH 508 0
DWIDTH 12 0
BBX 12 19 0 1
BITMAP
0f00
30c0
6060
4020
df30
b090
b0d0
b0d0
b0d0
bf90
b110
b090
b0d0
b0d0
f0f0
4020
6060
30c0
0f00
ENDCHAR
STARTCHAR macron
ENCODING 175
SWIDTH 508 0
DWIDTH 12 0
BBX 11 2 0 17
BITMAP
ffe0
ffe0
ENDCHAR
STARTCHAR degree
ENCODING 176
SWIDTH 508 0
DWIDTH 12 0
BBX 7 6 2 14
BITMAP
38
6c
c6
c6
6c
38
ENDCHAR
STARTCHAR plusminus
ENCODING 177
SWIDTH 508 0
DWIDTH 12 0
BBX 10 13 1 2
BITMAP
0c00
0c00
0c00
0c00
ffc0
ffc0
0c00
0c00
0c00
0c00
0000
ffc0
ffc0
ENDCHAR
STARTCHAR twosuperior
ENCODING 178
SWIDTH 508 0
DWIDTH 12 0
BBX 6 9 3 11
BITMAP
78
cc
cc
0c
18
20
44
cc
fc
ENDCHAR
STARTCHAR threesuperior
ENCODING 179
SWIDTH 508 0
DWIDTH 12 0
BBX 6 9 3 11
BITMAP
78
cc
cc
0c
38
0c
cc
cc
78
ENDCHAR
STARTCHAR acute
ENCODING 180
SWIDTH 508 0
DWIDTH 12 0
BBX 6 4 3 16
BITMAP
1c
38
60
c0
ENDCHAR
STARTCHAR mu
ENCODING 181
SWIDTH 508 0
DWIDTH 12 0
BBX 11 12 0 -2
BITMAP
0c60
0c60
0840
08c0
1080
1080
3180
2ea0
60e0
c000
c000
c000
ENDCHAR
STARTCHAR paragraph
ENCODING 182
SWIDTH 508 0
DWIDTH 12 0
BBX 12 19 0 1
BITMAP
1ff0
3f40
7f40
7f40
ff40
ff40
ff40
7f40
3f40
0f40
0140
0140
0140
0140
0140
0140
0140
0140
0770
ENDCHAR
STARTCHAR periodcentered
ENCODING 183
SWIDTH 508 0
DWIDTH 12 0
BBX 3 3 4 9
BITMAP
e0
e0
e0
ENDCHAR
STARTCHAR cedilla
ENCODING 184
SWIDTH 508 0
DWIDTH 12 0
BBX 6 5 3 -2
BITMAP
1c
18
30
60
80
ENDCHAR
STARTCHAR onesuperior
ENCODING 185
SWIDTH 508 0
DWIDTH 12 0
BBX 6 9 3 11
BITMAP
30
70
f0
30
30
30
30
30
fc
ENDCHAR
STARTCHAR masculine
ENCODING 186
SWIDTH 508 0
DWIDTH 12 0
BBX 7 11 3 9
BITMAP
38
44
c6
c6
c6
c6
c6
44
38
00
fe
ENDCHAR
STARTCHAR guillemotright
ENCODING 187
SWIDTH 508 0
DWIDTH 12 0
BBX 10 20 1 0
BITMAP
8800
cc00
4400
6600
2200
3300
1100
1980
0880
0cc0
0cc0
0880
1980
1100
3300
2200
6600
4400
cc00
8800
ENDCHAR
STARTCHAR onequarter
ENCODING 188
SWIDTH 508 0
DWIDTH 12 0
BBX 12 19 0 1
BITMAP
3000
7000
b000
3000
3010
3030
3060
31c0
0300
0e00
1800
70c0
c1c0
82c0
04c0
0cc0
0ff0
00c0
00c0
ENDCHAR
STARTCHAR onehalf
ENCODING 189
SWIDTH 508 0
DWIDTH 12 0
BBX 12 19 0 1
BITMAP
3000
7000
b000
3000
3010
3030
3060
31c0
0300
0e00
1800
71e0
c330
8330
0030
0060
0180
0310
03f0
ENDCHAR
STARTCHAR threequarters
ENCODING 190
SWIDTH 508 0
DWIDTH 12 0
BBX 12 19 0 1
BITMAP
7800
cc00
8c00
0c00
3010
0c30
cc60
cdc0
7300
0e00
1800
70c0
c1c0
82c0
04c0
0cc0
0ff0
00c0
00c0
ENDCHAR
STARTCHAR questiondown
ENCODING 191
SWIDTH 508 0
DWIDTH 12 0
BBX 10 19 1 1
BITMAP
0e00
0e00
0e00
0000
0000
0400
0400
0400
0800
1800
3000
6000
e000
c180
c1c0
c0c0
c0c0
6180
1e00
ENDCHAR
STARTCHAR Agrave
ENCODING 192
SWIDTH 508 0
DWIDTH 12 0
BBX 12 21 0 1
BITMAP
3800
0c00
0200
0000
0600
0600
0b00
0b00
0b00
0980
1180
1180
1180
20c0
20c0
3fc0
20c0
4060
4060
4060
e0f0
ENDCHAR
STARTCHAR Aacute
ENCODING 193
SWIDTH 508 0
DWIDTH 12 0
BBX 12 21 0 1
BITMAP
01c0
0300
0400
0000
0600
0600
0b00
0b00
0b00
0980
1180
1180
1180
20c0
20c0
3fc0
20c0
4060
4060
4060
e0f0
ENDCHAR
STARTCHAR Acircumflex
ENCODING 194
SWIDTH 508 0
DWIDTH 12 0
BBX 12 21 0 1
BITMAP
0600
1980
2040
0000
0600
0600
0b00
0b00
0b00
0980
1180
1180
1180
20c0
20c0
3fc0
20c0
4060
4060
4060
e0f0
ENDCHAR
STARTCHAR Atilde
ENCODING 195
SWIDTH 508 0
DWIDTH 12 0
BBX 12 21 0 1
BITMAP
1cc0
6700
0000
0000
0600
0600
0b00
0b00
0b00
0980
1180
1180
1180
20c0
20c0
3fc0
20c0
4060
4060
4060
e0f0
ENDCHAR
STARTCHAR Adiaeresis
ENCODING 196
SWIDTH 508 0
DWIDTH 12 0
BBX 12 21 0 1
BITMAP
1980
1980
0000
0000
0600
0600
0b00
0b00
0b00
0980
1180
1180
1180
20c0
20c0
3fc0
20c0
4060
4060
4060
e0f0
ENDCHAR
STARTCHAR Aring
ENCODING 197
SWIDTH 508 0
DWIDTH 12 0
BBX 12 21 0 1
BITMAP
0f00
1980
1980
0f00
0600
0600
0b00
0b00
0b00
0980
1180
1180
1180
20c0
20c0
3fc0
20c0
4060
4060
4060
e0f0
ENDCHAR
STARTCHAR AE
ENCODING 198
SWIDTH 508 0
DWIDTH 12 0
BBX 12 19 0 1
BITMAP
07f0
0730
0710
0b00
0b00
0b00
0b20
1320
1360
13e0
2360
2320
3f20
2300
4300
4300
4310
4330
e7f0
ENDCHAR
STARTCHAR Ccedilla
ENCODING 199
SWIDTH 508 0
DWIDTH 12 0
BBX 10 22 1 -2
BITMAP
0e40
31c0
60c0
6040
c000
c000
c000
c000
c000
c000
c000
c000
c000
c000
6040
6040
3180
0e00
0400
0200
0200
0c00
ENDCHAR
STARTCHAR Egrave
ENCODING 200
SWIDTH 508 0
DWIDTH 12 0
BBX 11 21 0 1
BITMAP
3800
0c00
0200
0000
ffc0
60c0
6040
6020
6000
6100
6100
6300
7f00
6300
6100
6100
6000
6020
6040
60c0
ffc0
ENDCHAR
STARTCHAR Eacute
ENCODING 201
SWIDTH 508 0
DWIDTH 12 0
BBX 11 21 0 1
BITMAP
0380
0600
0800
0000
ffc0
60c0
6040
6020
6000
6100
6100
6300
7f00
6300
6100
6100
6000
6020
6040
60c0
ffc0
ENDCHAR
STARTCHAR Ecircumflex
ENCODING 202
SWIDTH 508 0
DWIDTH 12 0
BBX 11 21 0 1
BITMAP
0400
1b00
60c0
0000
ffc0
60c0
6040
6020
6000
6100
6100
6300
7f00
6300
6100
6100
6000
6020
6040
60c0
ffc0
ENDCHAR
STARTCHAR Ediaeresis
ENCODING 203
SWIDTH 508 0
DWIDTH 12 0
BBX 11 21 0 1
BITMAP
3300
3300
0000
0000
ffc0
60c0
6040
6020
6000
6100
6100
6300
7f00
6300
6100
6100
6000
6020
6040
60c0
ffc0
ENDCHAR
STARTCHAR Igrave
ENCODING 204
SWIDTH 508 0
DWIDTH 12 0
BBX 6 21 2 1
BITMAP
e0
30
08
00
fc
30
30
30
30
30
30
30
30
30
30
30
30
30
30
30
fc
ENDCHAR
STARTCHAR Iacute
ENCODING 205
SWIDTH 508 0
DWIDTH 12 0
BBX 6 21 2 1
BITMAP
1c
30
40
00
fc
30
30
30
30
30
30
30
30
30
30
30
30
30
30
30
fc
ENDCHAR
STARTCHAR Icircumflex
ENCODING 206
SWIDTH 508 0
DWIDTH 12 0
BBX 6 21 2 1
BITMAP
30
48
84
00
fc
30
30
30
30
30
30
30
30
30
30
30
30
30
30
30
fc
ENDCHAR
STARTCHAR Idiaeresis
ENCODING 207
SWIDTH 508 0
DWIDTH 12 0
BBX 6 21 2 1
BITMAP
cc
cc
00
00
fc
30
30
30
30
30
30
30
30
30
30
30
30
30
30
30
fc
ENDCHAR
STARTCHAR ETH
ENCODING 208
SWIDTH 508 0
DWIDTH 12 0
BBX 11 19 0 1
BITMAP
fc00
6300
6180
60c0
60c0
6060
6060
6060
6060
fc60
6060
6060
6060
6060
60c0
60c0
6180
6300
fc00
ENDCHAR
STARTCHAR Ntilde
ENCODING 209
SWIDTH 508 0
DWIDTH 12 0
BBX 11 21 0 1
BITMAP
1cc0
6700
0000
0000
e0e0
6040
7040
7040
5840
5840
5840
4c40
4c40
4640
4640
4340
4340
41c0
41c0
40c0
e0c0
ENDCHAR
STARTCHAR Ograve
ENCODING 210
SWIDTH 508 0
DWIDTH 12 0
BBX 11 21 0 1
BITMAP
3800
0c00
0200
0000
1f00
60c0
4040
c060
c060
c060
c060
c060
c060
c060
c060
c060
c060
c060
4040
60c0
1f00
ENDCHAR
STARTCHAR Oacute
ENCODING 211
SWIDTH 508 0
DWIDTH 12 0
BBX 11 21 0 1
BITMAP
0380
0600
0800
0000
1f00
60c0
4040
c060
c060
c060
c060
c060
c060
c060
c060
c060
c060
c060
4040
60c0
1f00
ENDCHAR
STARTCHAR Ocircumflex
ENCODING 212
SWIDTH 508 0
DWIDTH 12 0
BBX 11 21 0 1
BITMAP
0400
1b00
60c0
0000
1f00
60c0
4040
c060
c060
c060
c060
c060
c060
c060
c060
c060
c060
c060
4040
60c0
1f00
ENDCHAR
STARTCHAR Otilde
ENCODING 213
SWIDTH 508 0
DWIDTH 12 0
BBX 11 21 0 1
BITMAP
1cc0
6700
0000
0000
1f00
60c0
4040
c060
c060
c060
c060
c060
c060
c060
c060
c060
c060
c060
4040
60c0
1f00
ENDCHAR
STARTCHAR Odiaeresis
ENCODING 214
SWIDTH 508 0
DWIDTH 12 0
BBX 11 21 0 1
BITMAP
3180
3180
0000
0000
1f00
60c0
4040
c060
c060
c060
c060
c060
c060
c060
c060
c060
c060
c060
4040
60c0
1f00
ENDCHAR
STARTCHAR multiply
ENCODING 215
SWIDTH 508 0
DWIDTH 12 0
BBX 11 10 0 5
BITMAP
c060
60c0
3180
1b00
0e00
0e00
1b00
3180
60c0
c060
ENDCHAR
STARTCHAR Ooblique
ENCODING 216
SWIDTH 508 0
DWIDTH 12 0
BBX 11 21 0 0
BITMAP
0040
1f40
60c0
40c0
c160
c160
c260
c260
c260
c460
c460
c860
c860
c860
d060
d060
e060
6040
60c0
5f00
4000
ENDCHAR
STARTCHAR Ugrave
ENCODING 217
SWIDTH 508 0
DWIDTH 12 0
BBX 11 21 0 1
BITMAP
1c00
0600
0100
0000
f0e0
6040
6040
6040
6040
6040
6040
6040
6040
6040
6040
6040
6040
6040
6040
3080
1f00
ENDCHAR
STARTCHAR Uacute
ENCODING 218
SWIDTH 508 0
DWIDTH 12 0
BBX 11 21 0 1
BITMAP
0380
0600
0800
0000
f0e0
6040
6040
6040
6040
6040
6040
6040
6040
6040
6040
6040
6040
6040
6040
3080
1f00
ENDCHAR
STARTCHAR Ucircumflex
ENCODING 219
SWIDTH 508 0
DWIDTH 12 0
BBX 11 21 0 1
BITMAP
0400
1b00
60c0
0000
f0e0
6040
6040
6040
6040
6040
6040
6040
6040
6040
6040
6040
6040
6040
6040
3080
1f00
ENDCHAR
STARTCHAR Udiaeresis
ENCODING 220
SWIDTH 508 0
DWIDTH 12 0
BBX 11 21 0 1
BITMAP
3180
3180
0000
0000
f0e0
6040
6040
6040
6040
6040
6040
6040
6040
6040
6040
6040
6040
6040
6040
3080
1f00
ENDCHAR
STARTCHAR Yacute
ENCODING 221
SWIDTH 508 0
DWIDTH 12 0
BBX 11 21 0 1
BITMAP
0380
0600
0800
0000
f0e0
6040
6040
3080
3080
3080
1900
1900
0f00
0e00
0600
0600
0600
0600
0600
0600
1f80
ENDCHAR
STARTCHAR THORN
ENCODING 222
SWIDTH 508 0
DWIDTH 12 0
BBX 11 20 0 0
BITMAP
f000
6000
6000
7e00
6180
60c0
6060
6060
6060
6060
6060
60c0
6180
7e00
6000
6000
6000
6000
6000
f000
ENDCHAR
STARTCHAR ssharp
ENCODING 223
SWIDTH 508 0
DWIDTH 12 0
BBX 11 19 0 1
BITMAP
3e00
4180
c0c0
c0c0
c0c0
c0c0
c0c0
c080
c100
ce00
c180
c0c0
c060
c060
c060
c060
c0c0
c180
ce00
ENDCHAR
STARTCHAR agrave
ENCODING 224
SWIDTH 508 0
DWIDTH 12 0
BBX 11 19 0 1
BITMAP
3800
0c00
0200
0000
0000
0000
1c00
7300
4180
0180
0180
1f80
6180
c180
c180
c180
c1a0
63a0
3cc0
ENDCHAR
STARTCHAR aacute
ENCODING 225
SWIDTH 508 0
DWIDTH 12 0
BBX 11 19 0 1
BITMAP
0700
0c00
1000
0000
0000
0000
1c00
7300
4180
0180
0180
1f80
6180
c180
c180
c180
c1a0
63a0
3cc0
ENDCHAR
STARTCHAR acircumflex
ENCODING 226
SWIDTH 508 0
DWIDTH 12 0
BBX 11 19 0 1
BITMAP
0c00
1200
3300
6180
0000
0000
1c00
7300
4180
0180
0180
1f80
7180
c180
c180
c180
c1a0
63a0
3cc0
ENDCHAR
STARTCHAR atilde
ENCODING 227
SWIDTH 508 0
DWIDTH 12 0
BBX 11 18 0 1
BITMAP
3980
6700
0000
0000
0000
1c00
7300
4180
0180
0180
1f80
6180
c180
c180
c180
c1a0
63a0
3cc0
ENDCHAR
STARTCHAR adiaeresis
ENCODING 228
SWIDTH 508 0
DWIDTH 12 0
BBX 11 17 0 1
BITMAP
3300
3300
0000
0000
1c00
7300
4180
0180
0180
1f80
6180
c180
c180
c180
c1a0
63a0
3cc0
ENDCHAR
STARTCHAR aring
ENCODING 229
SWIDTH 508 0
DWIDTH 12 0
BBX 11 19 0 1
BITMAP
1e00
3300
3300
1e00
0000
0000
1c00
7300
4180
0180
0180
1f80
6180
c180
c180
c180
c1a0
63a0
3cc0
ENDCHAR
STARTCHAR ae
ENCODING 230
SWIDTH 508 0
DWIDTH 12 0
BBX 11 13 0 1
BITMAP
3180
4a40
c460
c460
0460
1fe0
2400
4400
c400
c460
c460
ca60
71c0
ENDCHAR
STARTCHAR ccedilla
ENCODING 231
SWIDTH 508 0
DWIDTH 12 0
BBX 10 17 1 -2
BITMAP
0e40
31c0
60c0
c040
c000
c000
c000
c000
c000
c040
6040
3180
0e00
0400
0200
0200
0c00
ENDCHAR
STARTCHAR egrave
ENCODING 232
SWIDTH 508 0
DWIDTH 12 0
BBX 11 19 0 1
BITMAP
3800
0c00
0200
0000
0000
0000
0e00
3180
60c0
60e0
c060
ffe0
c000
c000
c000
6000
6020
30c0
0f00
ENDCHAR
STARTCHAR eacute
ENCODING 233
SWIDTH 508 0
DWIDTH 12 0
BBX 11 19 0 1
BITMAP
0700
0c00
1000
0000
0000
0000
0e00
3180
60c0
60e0
c060
ffe0
c000
c000
c000
6000
6020
38c0
0f00
ENDCHAR
STARTCHAR ecircumflex
ENCODING 234
SWIDTH 508 0
DWIDTH 12 0
BBX 11 19 0 1
BITMAP
0e00
1100
3180
60c0
0000
0000
0e00
3180
60c0
60e0
c060
ffe0
c000
c000
c000
6000
6020
30c0
0f00
ENDCHAR
STARTCHAR ediaeresis
ENCODING 235
SWIDTH 508 0
DWIDTH 12 0
BBX 11 17 0 1
BITMAP
3180
3180
0000
0000
0e00
3180
60c0
60e0
c060
ffe0
c000
c000
c000
6000
6020
30c0
0f00
ENDCHAR
STARTCHAR igrave
ENCODING 236
SWIDTH 508 0
DWIDTH 12 0
BBX 10 19 0 1
BITMAP
3800
0c00
0200
0000
0000
0000
3c00
0c00
0c00
0c00
0c00
0c00
0c00
0c00
0c00
0c00
0c00
0c00
ffc0
ENDCHAR
STARTCHAR iacute
ENCODING 237
SWIDTH 508 0
DWIDTH 12 0
BBX 10 19 0 1
BITMAP
0700
0c00
1000
0000
0000
0000
3c00
0c00
0c00
0c00
0c00
0c00
0c00
0c00
0c00
0c00
0c00
0c00
ffc0
ENDCHAR
STARTCHAR icircumflex
ENCODING 238
SWIDTH 508 0
DWIDTH 12 0
BBX 10 19 0 1
BITMAP
0c00
1200
3300
6180
0000
0000
3c00
0c00
0c00
0c00
0c00
0c00
0c00
0c00
0c00
0c00
0c00
0c00
ffc0
ENDCHAR
STARTCHAR idiaeresis
ENCODING 239
SWIDTH 508 0
DWIDTH 12 0
BBX 10 17 0 1
BITMAP
3300
3300
0000
0000
3c00
0c00
0c00
0c00
0c00
0c00
0c00
0c00
0c00
0c00
0c00
0c00
ffc0
ENDCHAR
STARTCHAR eth
ENCODING 240
SWIDTH 508 0
DWIDTH 12 0
BBX 10 18 1 1
BITMAP
6300
7b00
0e00
0e00
1b00
6100
0180
1e80
3380
60c0
c0c0
c0c0
c0c0
c0c0
c0c0
c0c0
6180
3e00
ENDCHAR
STARTCHAR ntilde
ENCODING 241
SWIDTH 508 0
DWIDTH 12 0
BBX 11 18 0 1
BITMAP
3980
6700
0000
0000
0000
6600
f980
60c0
60c0
60c0
60c0
60c0
60c0
60c0
60c0
60c0
60c0
f1e0
ENDCHAR
STARTCHAR ograve
ENCODING 242
SWIDTH 508 0
DWIDTH 12 0
BBX 11 19 0 1
BITMAP
3800
0c00
0200
0000
0000
0000
0e00
3180
60c0
4040
c060
c060
c060
c060
c060
4040
60c0
3180
0e00
ENDCHAR
STARTCHAR oacute
ENCODING 243
SWIDTH 508 0
DWIDTH 12 0
BBX 11 19 0 1
BITMAP
0700
0c00
1000
0000
0000
0000
0e00
3180
60c0
4040
c060
c060
c060
c060
c060
4040
60c0
3180
0e00
ENDCHAR
STARTCHAR ocircumflex
ENCODING 244
SWIDTH 508 0
DWIDTH 12 0
BBX 11 19 0 1
BITMAP
0400
0a00
1b00
3180
0000
0000
0e00
3180
60c0
4040
c060
c060
c060
c060
c060
4040
60c0
3180
0e00
ENDCHAR
STARTCHAR otilde
ENCODING 245
SWIDTH 508 0
DWIDTH 12 0
BBX 11 17 0 1
BITMAP
1cc0
3380
0000
0000
0e00
3180
60c0
4040
c060
c060
c060
c060
c060
4040
60c0
3180
0e00
ENDCHAR
STARTCHAR odiaeresis
ENCODING 246
SWIDTH 508 0
DWIDTH 12 0
BBX 11 17 0 1
BITMAP
3180
3180
0000
0000
0e00
3180
60c0
4040
c060
c060
c060
c060
c060
4040
60c0
3180
0e00
ENDCHAR
STARTCHAR division
ENCODING 247
SWIDTH 508 0
DWIDTH 12 0
BBX 10 10 0 5
BITMAP
0c00
0c00
0000
0000
ffc0
ffc0
0000
0000
0c00
0c00
ENDCHAR
STARTCHAR oslash
ENCODING 248
SWIDTH 508 0
DWIDTH 12 0
BBX 11 13 0 1
BITMAP
0e60
31c0
6080
41c0
c360
c660
c460
cc60
d860
7040
20c0
7180
ce00
ENDCHAR
STARTCHAR ugrave
ENCODING 249
SWIDTH 508 0
DWIDTH 12 0
BBX 11 19 0 1
BITMAP
3800
0c00
0200
0000
0000
0000
60c0
e1c0
60c0
60c0
60c0
60c0
60c0
60c0
60c0
60c0
60c0
33c0
1ce0
ENDCHAR
STARTCHAR uacute
ENCODING 250
SWIDTH 508 0
DWIDTH 12 0
BBX 11 19 0 1
BITMAP
0700
0c00
1000
0000
0000
0000
60c0
e1c0
60c0
60c0
60c0
60c0
60c0
60c0
60c0
60c0
60c0
33c0
1ce0
ENDCHAR
STARTCHAR ucircumflex
ENCODING 251
SWIDTH 508 0
DWIDTH 12 0
BBX 11 19 0 1
BITMAP
0400
0a00
1b00
3180
0000
0000
60c0
e1c0
60c0
60c0
60c0
60c0
60c0
60c0
60c0
60c0
60c0
33c0
1ce0
ENDCHAR
STARTCHAR udiaeresis
ENCODING 252
SWIDTH 508 0
DWIDTH 12 0
BBX 11 17 0 1
BITMAP
3300
3300
0000
0000
60c0
e1c0
60c0
60c0
60c0
60c0
60c0
60c0
60c0
60c0
60c0
33c0
1ce0
ENDCHAR
STARTCHAR yacute
ENCODING 253
SWIDTH 508 0
DWIDTH 12 0
BBX 11 22 0 -2
BITMAP
0700
0c00
1000
0000
0000
0000
f0e0
6040
6040
3080
3080
1880
1900
0d00
0e00
0600
0200
0400
0400
c800
c800
7000
ENDCHAR
STARTCHAR thorn
ENCODING 254
SWIDTH 508 0
DWIDTH 12 0
BBX 11 21 0 -2
BITMAP
e000
6000
6000
6000
6000
6e00
7180
60c0
6060
6060
6060
6060
6060
60c0
7180
6e00
6000
6000
6000
6000
f000
ENDCHAR
STARTCHAR ydiaeresis
ENCODING 255
SWIDTH 508 0
DWIDTH 12 0
BBX 11 20 0 -2
BITMAP
1980
1980
0000
0000
f0e0
6040
6040
3080
3080
1880
1900
0d00
0e00
0600
0200
0400
0400
c800
c800
7000
ENDCHAR
ENDFONT
